inDegrees=no
num_controls=7
num_derivatives=13
num_iterations=98
num_multipliers=7
num_parameters=0
num_slacks=7
num_states=26
objective=0.331679
objective_accelerations=0.035598
objective_balance=0.001278
objective_effort=0.026470
objective_height=0.266871
objective_ligament=0.001462
solver_duration=1035.057777
status=Solve_Succeeded
success=true
DataType=double
version=3
OpenSimVersion=4.5
endheader
time	/jointset/ground_pelvis/pelvis_tilt/value	/jointset/ground_pelvis/pelvis_tx/value	/jointset/ground_pelvis/pelvis_ty/value	/jointset/hip_r/hip_flexion_r/value	/jointset/hip_r/hip_adduction_r/value	/jointset/hip_r/hip_rotation_r/value	/jointset/back/lumbar_extension/value	/jointset/patellofemoral_r/patellar_flexion_r/value	/jointset/knee_r/knee_flexion_r/value	/jointset/knee_r/knee_adduction_r/value	/jointset/knee_r/knee_rotation_r/value	/jointset/ankle_r/ankle_angle_r/value	/jointset/subtalar_r/subtalar_angle_r/value	/jointset/ground_pelvis/pelvis_tilt/speed	/jointset/ground_pelvis/pelvis_tx/speed	/jointset/ground_pelvis/pelvis_ty/speed	/jointset/hip_r/hip_flexion_r/speed	/jointset/hip_r/hip_adduction_r/speed	/jointset/hip_r/hip_rotation_r/speed	/jointset/back/lumbar_extension/speed	/jointset/patellofemoral_r/patellar_flexion_r/speed	/jointset/knee_r/knee_flexion_r/speed	/jointset/knee_r/knee_adduction_r/speed	/jointset/knee_r/knee_rotation_r/speed	/jointset/ankle_r/ankle_angle_r/speed	/jointset/subtalar_r/subtalar_angle_r/speed	/forceset/tau_hip_flexion_r	/forceset/tau_hip_adduction_r	/forceset/tau_hip_rotation_r	/forceset/tau_knee_flexion_r	/forceset/tau_ankle_angle_r	/forceset/tau_subtalar_angle_r	/forceset/tau_lumbar_extension	lambda_cid13_p0	lambda_cid14_p0	lambda_cid14_p1	lambda_cid14_p2	lambda_cid14_p3	lambda_cid14_p4	lambda_cid14_p5	/jointset/ground_pelvis/pelvis_tilt/accel	/jointset/ground_pelvis/pelvis_tx/accel	/jointset/ground_pelvis/pelvis_ty/accel	/jointset/hip_r/hip_flexion_r/accel	/jointset/hip_r/hip_adduction_r/accel	/jointset/hip_r/hip_rotation_r/accel	/jointset/back/lumbar_extension/accel	/jointset/patellofemoral_r/patellar_flexion_r/accel	/jointset/knee_r/knee_flexion_r/accel	/jointset/knee_r/knee_adduction_r/accel	/jointset/knee_r/knee_rotation_r/accel	/jointset/ankle_r/ankle_angle_r/accel	/jointset/subtalar_r/subtalar_angle_r/accel	gamma_cid13_p0	gamma_cid14_p0	gamma_cid14_p1	gamma_cid14_p2	gamma_cid14_p3	gamma_cid14_p4	gamma_cid14_p5
1	-0.2658331511611322	-0.005827555853673249	0.6424911658789214	1.430800795137863	-0.2367941215711718	-0.09414106263869777	-0.7853946166366242	1.481894810740512	1.481894810740618	-0.1745192574432321	0.1728141688379487	0.4362478248993771	0.1788071152680298	0.07121264877305905	0.005780100255822499	0.01546448422948435	-0.1021052753974288	-0.001310127076885186	0.0002251050442899928	-0.0003076003988320236	-0.01700604409214791	-0.01700604409214678	0.0066689744399276	-0.0002298292340683965	0.013526885899944	0.004556111173765014	-0.3509309833891754	0.03911360341589652	0.008634894409064543	-0.4294606020968039	-0.0463680365742383	0.005777309743741959	0.3659254326099786	-0.04137820210180908	-66.2496323667603	-12.73023804723391	6.608658037579734	7.334884223436001	-766.9619606456856	60.94036771054213	1.384434497396937	0.1724771241912379	1.767247371137914	-5.421390215443152	0.2099425992156616	-0.2805540676471119	-0.02898013260401965	-4.866099026575307	-4.866099026575683	1.026048025327991	0.04115535181095404	-1.01858730603489	-0.1263957378658691	1.536664666621697e-09	-8.112914251863758e-10	1.251287805668153e-08	9.133544256019634e-09	4.282951765420043e-09	-7.418776924219801e-09	2.260908922829489e-08
1.01	-0.2650527362201731	-0.00576096735897553	0.6427340841645878	1.429509488812845	-0.2367968805470618	-0.09415023444962858	-0.7853969365839295	1.481481761500886	1.481481761501001	-0.1743984689087404	0.1728137241639915	0.4363323013076517	0.1788460681942852	0.08484439023277644	0.007557658045550576	0.03312315682182364	-0.1561662301806111	0.0007516115980733229	-0.002048607957485013	-1.306824094479843e-05	-0.06561661345718485	-0.0656166134571864	0.01751294182797333	0.0001454715433044972	0.003388774235426221	0.003231857757310801	-0.3515061500438099	0.03916850060749243	0.008729195704767594	-0.4297616981969251	-0.04622667039672294	0.005719145476836356	0.3668380521713814	-0.04137510758945661	-66.24720901114412	-12.76614515561257	6.627028204223626	7.03465911334707	-767.699919905859	60.94524388079502	1.348653758556412	0.1834046135988253	1.765771847269608	-5.399982349438823	0.2032876806525814	-0.1991476385968205	0.0801680141292251	-4.860458610037712	-4.860458610037863	1.117202179051001	0.03641672247085194	-1.008366976988155	-0.1358206971983893	6.326933509300746e-09	5.213863836670959e-09	4.006893194612241e-08	4.649895648429055e-08	3.02616488399819e-09	-1.464568756276704e-08	8.388101157371218e-08
1.02	-0.2641367819069553	-0.005676001384933483	0.6431537081049752	1.427677266092061	-0.2367792225003978	-0.09418181693500879	-0.7853920115848757	1.480582222023895	1.480582222024018	-0.1741685144836508	0.1728171723541623	0.4363160078235329	0.1788717024756436	0.09832052322438246	0.009455596124687963	0.05080561517366177	-0.2102885545511196	0.002773277433696156	-0.004257029845424526	0.001141388882705399	-0.1143040915650144	-0.1143040915650158	0.02850215255634332	0.0005487435914923858	-0.006627092642206275	0.001892382194330592	-0.3520813166984386	0.03922339779909088	0.00882349700046089	-0.4300627942970474	-0.04608530421920791	0.005660981209935603	0.3677506717327901	-0.04137834801618377	-66.25191818508866	-12.79765559604594	6.638248451158588	6.730999521426354	-768.5628764765745	60.98985579950632	1.353312803774587	0.1965531820731947	1.77200452303769	-5.433664132908445	0.201928031348503	-0.2674958448800502	0.1430048605486531	-4.881480775133795	-4.881480775133608	1.055096693392817	0.04674960597396061	-0.9941383486576501	-0.1294401671710161	1.152166159046184e-08	1.415025623493203e-08	6.987902214129795e-08	8.793596549239905e-08	-3.58342678277868e-09	-2.036603646923457e-08	1.518696379438505e-07
1.03	-0.2630870760171521	-0.005571551752948048	0.6437501835487717	1.425304026042904	-0.2367415174994302	-0.09423521561960496	-0.7853707280666362	1.479195384951819	1.479195384951892	-0.1738280155459441	0.1728247756320581	0.4361998340523698	0.178883753724586	0.1115705333680922	0.01144477852895319	0.06848425596423503	-0.2643177828887615	0.004764019768879987	-0.00641571807361536	0.003311527873207694	-0.1630801195240188	-0.163080119524037	0.03961662809422126	0.0009744082579138065	-0.0166206007568312	0.0005039082401423324	-0.3529631049249217	0.03939363976824119	0.008906434845172687	-0.4294544341882744	-0.04716158118519157	0.005699304371156417	0.3688757821503922	-0.04140092161803155	-66.63589164623934	-12.82138804609866	6.611357662147029	6.875747039663626	-769.239587264728	60.96768757450933	1.30333207014212	0.2016659182912256	1.765005965089244	-5.381296554540567	0.1971087329197913	-0.1889962535932185	0.2834503835440914	-4.878186682939547	-4.878186682942206	1.14246961530452	0.04088399355061405	-1.003897884628007	-0.1456138330909915	1.672051680670948e-08	2.311635513458499e-08	9.971211270694018e-08	1.294145214064243e-07	-1.0247638906549e-08	-2.607101229680332e-08	2.199268021101595e-07
1.04	-0.2619063726358152	-0.005446897267182402	0.6445232878220785	1.4223917448363	-0.2366840127954467	-0.0943099893748465	-0.7853218567654137	1.477320283024822	1.477320283024846	-0.1733758025265903	0.1728367173759314	0.4359833370316901	0.1788815076692769	0.124520021530717	0.01349656688073044	0.08613138107568798	-0.3180967860403478	0.006733218036722824	-0.008532043973990475	0.006658945473428921	-0.2119570625492543	-0.2119570625492905	0.05084496888486842	0.001416436787310047	-0.0266917425419783	-0.0009670786559753755	-0.3538448931514158	0.03956388173738825	0.008989372689885537	-0.4288460740795011	-0.04823785815117381	0.00573762753237186	0.3700008925679847	-0.04142992557170223	-67.02711360327608	-12.8406221463035	6.577161396043502	7.015289234161936	-770.0447973059374	60.98564329054401	1.293208407557547	0.2090743715756428	1.76570138721363	-5.383619095697347	0.1976192178802931	-0.2590233793169215	0.3784605824922549	-4.901663788380019	-4.901663788380065	1.077869743946655	0.0500223785689297	-1.009665082762005	-0.1459427555568841	2.152584523508625e-08	3.06446975424859e-08	1.272056294540332e-07	1.688147711521844e-07	-1.455737360853759e-08	-3.156295653964469e-08	2.812641295306996e-07
1.05	-0.2605975280876955	-0.005301368424631695	0.6454726437381055	1.41894288703392	-0.2366069462866958	-0.09440576498956232	-0.7852337227287963	1.474956048364029	1.474956048364003	-0.1728108064584968	0.1728531478697815	0.4356657698907427	0.1788641157198972	0.137211170366669	0.01562401168922682	0.1037281958914667	-0.3716345461663921	0.008674418131744703	-0.01061573382709957	0.0111574568242306	-0.2608925378550925	-0.2608925378551476	0.06217145090655908	0.001869607865366149	-0.03683195720972849	-0.002527312778221811	-0.3544399637269591	0.03969925360853669	0.009127751899158506	-0.4279870665644858	-0.04914187456923988	0.005752411662581529	0.3709239351930023	-0.04146348419619505	-67.33738992090049	-12.85521867600504	6.54144083294104	7.082103410906745	-770.4675444568867	60.96276690221952	1.251418548519867	0.2167972430370624	1.754923127972266	-5.332812641641967	0.1915478302564168	-0.1819225437418417	0.5139856571147767	-4.889894950739512	-4.889894950742344	1.162614427812636	0.04301156381120258	-1.017740023570821	-0.1634149280607136	2.631887595134205e-08	3.812811006001955e-08	1.546260345192965e-07	2.081500738301863e-07	-1.879353089109551e-08	-3.704824354546333e-08	3.423914620529345e-07
1.06	-0.2591629019658331	-0.00513412159248599	0.6465976181221329	1.414959859996164	-0.236510632292005	-0.09452215365389972	-0.7850949157295117	1.472102377840367	1.472102377840292	-0.1721320301708779	0.1728741194926868	0.4352464925301568	0.1788306511917946	0.1496763362788527	0.01784016479972992	0.1212550746757363	-0.4249306331157989	0.010582715224499	-0.01265465389756588	0.01679353800465682	-0.3098442351230821	-0.3098442351231561	0.07360101278954446	0.002324662598911998	-0.04703378646904934	-0.004181594400555174	-0.3550350343025038	0.03983462547967963	0.009266131108442419	-0.4271280590494687	-0.05004589098730682	0.005767195792780154	0.3718469778180188	-0.04150369218391318	-67.65507458376679	-12.86524751100649	6.498292553712241	7.143251459631323	-771.0222519936788	60.98027657788205	1.248011822803858	0.2268160319770132	1.751714180911799	-5.335284460369847	0.1910386174267681	-0.2500694227883744	0.6059745484170831	-4.904908180810284	-4.904908180810347	1.098485716205598	0.05039910966688255	-1.021988001076089	-0.164752255574257	3.054777251545867e-08	4.487167414461883e-08	1.787290778352953e-07	2.438563897529624e-07	-2.30590216646984e-08	-4.167017940980794e-08	3.957016113329284e-07
1.07	-0.2576047167290445	-0.004944262873354471	0.6478974335735241	1.410445211272064	-0.236395415853158	-0.09465880003501936	-0.7848942618903948	1.468759219591574	1.468759219591503	-0.1713385496717548	0.1728996513005859	0.4347248297181568	0.1787801186045376	0.1619240741128101	0.02014704903490151	0.1386883908416051	-0.4779433000834912	0.01245385424039087	-0.01466756542395779	0.0235099508762195	-0.3587787056264831	-0.3587787056265393	0.08510994809311251	0.00277954620919415	-0.05731511048215925	-0.005945640242875846	-0.3551146830262595	0.0399158838711902	0.009462461927791618	-0.4260767872548977	-0.05068212194678699	0.00575425097046511	0.3723407305578209	-0.04155208005116064	-67.85514119849896	-12.86734971234602	6.454594609610721	7.164409190093779	-771.0649518228678	60.9655176770774	1.207669777313171	0.2349395950357088	1.736187306344646	-5.275876084132079	0.1841804984993135	-0.1758197320965667	0.73038281497385	-4.886417142442689	-4.886417142439975	1.179321319912603	0.04278363909659302	-1.033654088678461	-0.1852733214509617	3.47466619438232e-08	5.157588458916841e-08	2.026556657390992e-07	2.793696744653542e-07	-2.732607273037815e-08	-4.624619234109541e-08	4.485959529936542e-07
1.08	-0.2559251511111906	-0.004730872316721595	0.6493709915809582	1.405402112224454	-0.2362616822331855	-0.09481535907431235	-0.7846212622908689	1.464926976506279	1.464926976506214	-0.1704295350430983	0.1729296820750632	0.4340998637685747	0.1787113370442794	0.1739524124916256	0.02254653230000117	0.1560035858842829	-0.5306206978177123	0.01428615144944024	-0.0166371855316279	0.03126269008570125	-0.4076612024233908	-0.4076612024234287	0.09670783869588846	0.003224455914984391	-0.06769441398526903	-0.007831389000795448	-0.355194331750026	0.03999714226269611	0.009658792747145904	-0.425025515460326	-0.05131835290626631	0.00574130614814167	0.3728344832976132	-0.04160729096047233	-68.06277238406429	-12.86487548582081	6.40342633288403	7.179469466640153	-771.2429369819681	60.99105872048473	1.204131931775453	0.2453358379626491	1.728089956273624	-5.268230613675621	0.1832702560582607	-0.2414111390440225	0.8132398160008532	-4.894513439511597	-4.894513439511584	1.11627677604718	0.04840432876850271	-1.041583899076027	-0.1890928386940335	3.827281885897109e-08	5.699873686251243e-08	2.222994909353831e-07	3.095674415005355e-07	-3.056792596852241e-08	-5.010532601593424e-08	4.909841361474243e-07
